HIERARCHY
ROOT Hips
{
 OFFSET 0.000000 0.000000 0.000000
 CHANNELS 6 Xposition Yposition Zposition Yrotation Xrotation Zrotation
 JOINT Chest
 {
  OFFSET 0.000000 9.585900 0.002600
  CHANNELS 3 Yrotation Xrotation Zrotation
  JOINT Chest2
  {
   OFFSET 0.000000 9.601200 -0.005300
   CHANNELS 3 Yrotation Xrotation Zrotation
   JOINT Chest3
   {
    OFFSET 0.000000 9.561800 0.000000
    CHANNELS 3 Yrotation Xrotation Zrotation
    JOINT Chest4
    {
     OFFSET 0.000000 9.552100 0.000000
     CHANNELS 3 Yrotation Xrotation Zrotation
     JOINT Neck
     {
      OFFSET 0.000000 14.453000 0.000000
      CHANNELS 3 Yrotation Xrotation Zrotation
      JOINT Head
      {
       OFFSET 0.000000 8.936500 -0.011300
       CHANNELS 3 Yrotation Xrotation Zrotation
       End Site
       {
        OFFSET 0.000000 17.073600 -0.006000
       }
      }
     }
     JOINT RightCollar
     {
      OFFSET -2.921100 9.558500 0.000000
      CHANNELS 3 Yrotation Xrotation Zrotation
      JOINT RightShoulder
      {
       OFFSET -13.519700 0.000000 0.000000
       CHANNELS 3 Yrotation Xrotation Zrotation
       JOINT RightElbow
       {
        OFFSET 0.000000 -29.696600 0.000000
        CHANNELS 3 Yrotation Xrotation Zrotation
        JOINT RightWrist
        {
         OFFSET 0.000000 -24.004700 0.000000
         CHANNELS 3 Yrotation Xrotation Zrotation
         End Site
         {
          OFFSET 0.000000 -17.728500 0.000000
         }
        }
       }
      }
     }
     JOINT LeftCollar
     {
      OFFSET 2.921100 9.558500 0.000000
      CHANNELS 3 Yrotation Xrotation Zrotation
      JOINT LeftShoulder
      {
       OFFSET 13.519700 0.000000 0.000000
       CHANNELS 3 Yrotation Xrotation Zrotation
       JOINT LeftElbow
       {
        OFFSET 0.000000 -29.696600 0.000000
        CHANNELS 3 Yrotation Xrotation Zrotation
        JOINT LeftWrist
        {
         OFFSET 0.000000 -24.004700 0.000000
         CHANNELS 3 Yrotation Xrotation Zrotation
         End Site
         {
          OFFSET 0.000000 -17.728500 0.000000
         }
        }
       }
      }
     }
    }
   }
  }
 }
 JOINT RightHip
 {
  OFFSET -7.771700 -0.012900 -0.001300
  CHANNELS 3 Yrotation Xrotation Zrotation
  JOINT RightKnee
  {
   OFFSET 0.000000 -40.869800 0.001200
   CHANNELS 3 Yrotation Xrotation Zrotation
   JOINT RightAnkle
   {
    OFFSET 0.000000 -39.717900 0.002100
    CHANNELS 3 Yrotation Xrotation Zrotation
    JOINT RightToe
    {
     OFFSET 0.000000 -4.965400 11.033500
     CHANNELS 3 Yrotation Xrotation Zrotation
     End Site
     {
      OFFSET 0.000000 -1.423100 5.872300
     }
    }
   }
  }
 }
 JOINT LeftHip
 {
  OFFSET 7.771700 -0.012900 -0.001300
  CHANNELS 3 Yrotation Xrotation Zrotation
  JOINT LeftKnee
  {
   OFFSET 0.000000 -40.869800 0.001200
   CHANNELS 3 Yrotation Xrotation Zrotation
   JOINT LeftAnkle
   {
    OFFSET 0.000000 -39.717900 0.002100
    CHANNELS 3 Yrotation Xrotation Zrotation
    JOINT LeftToe
    {
     OFFSET 0.000000 -4.965400 11.033500
     CHANNELS 3 Yrotation Xrotation Zrotation
     End Site
     {
      OFFSET 0.000000 -1.423100 5.872300
     }
    }
   }
  }
 }
}
MOTION
Frames: 15
Frame Time: 0.008333
0.000000 85.388000 0.000000 0.000000 -5.767877 0.000000 0.000000 11.653817 0.000000 0.000000 -5.885947 0.000000 0.000000 -0.000000 0.000000 0.000000 -0.000000 0.000000 0.000000 12.528835 0.000000 0.000000 0.711642 0.000000 0.000000 -0.000000 0.000000 0.000000 0.000000 -90.000000 0.000000 -2.309062 0.000000 0.000000 2.309062 0.000000 0.000000 -0.000000 0.000000 0.000000 -0.000000 90.000000 0.000000 -2.309062 0.000000 0.000000 2.309062 0.000000 0.000000 8.520406 0.000000 0.000000 1.905762 0.000000 -0.000000 -4.658285 0.000000 0.000000 -0.000000 0.000000 0.000000 8.520406 0.000000 0.000000 1.905762 0.000000 -0.000000 -4.658285 0.000000 0.000000 -0.000000 0.000000
-15.204382 58.205036 25.151580 178.657904 -27.731889 -0.842274 1.502079 16.620524 1.163730 0.145876 1.727329 0.057826 0.244554 2.882521 0.099029 1.332254 14.774113 0.651229 -0.837307 11.300635 -0.902094 -1.104628 -15.000090 -1.348490 5.078248 -2.426927 2.320612 28.666678 -31.137901 -17.675478 43.509159 -16.296955 -3.486946 13.166367 -9.872642 -46.482088 -7.750824 -3.008154 -0.184286 -14.904048 -26.853792 5.087389 -52.531536 -23.773380 17.520825 -24.067618 -9.254055 37.873621 9.628772 -43.306256 -3.125952 2.599912 73.181917 1.027870 2.395923 -1.803972 5.609169 -0.001549 0.095292 0.031869 -4.724072 -45.729811 -7.924961 31.005478 74.559868 32.926160 -19.832425 -4.331299 -0.956639 -0.339741 -0.885052 -0.322885
-15.218259 58.215148 25.132404 178.654107 -27.738976 -0.779449 1.536753 16.585884 1.125282 0.148571 1.715000 0.058003 0.220113 2.900435 0.095552 1.390322 14.689645 0.659574 -0.843834 11.304152 -0.868161 -1.211626 -14.853563 -1.298497 5.117385 -2.411860 2.336749 28.289775 -30.985230 -17.590457 43.792019 -16.494005 -3.563949 13.229453 -10.465324 -46.708105 -7.671153 -3.023912 -0.161029 -15.075212 -26.661470 5.174290 -53.015555 -24.059434 17.756388 -24.119538 -9.444676 38.079707 9.691996 -43.284487 -3.172536 2.804703 73.205863 1.172454 2.301572 -1.825235 5.654877 0.002886 0.101533 0.021196 -4.617394 -45.709957 -8.064669 30.615836 74.627092 32.531314 -19.687044 -4.267879 -0.778795 -0.384106 -0.929917 -0.416861
-15.228098 58.227451 25.111111 178.646578 -27.741748 -0.737253 1.583858 16.543827 1.106928 0.151900 1.702292 0.057846 0.239464 2.861772 0.097792 1.410827 14.659425 0.662549 -0.870080 11.340425 -0.835994 -1.307904 -14.737903 -1.227534 5.112355 -2.368787 2.354758 27.944020 -30.876808 -17.483513 44.007286 -16.617837 -3.617839 13.317806 -11.170843 -46.991512 -7.582741 -3.033268 -0.133659 -15.243864 -26.482380 5.247362 -53.512024 -24.333300 17.973121 -24.169246 -9.633786 38.280101 9.724222 -43.269859 -3.132413 2.951384 73.226883 1.200390 2.172797 -1.823390 5.739754 0.015669 0.089977 0.018655 -4.522971 -45.691372 -8.174154 30.174242 74.702606 32.082773 -19.501945 -4.157849 -0.571447 -0.498487 -1.014117 -0.520682
-15.237652 58.240695 25.090884 178.657026 -27.724289 -0.698276 1.618618 16.478007 1.079457 0.155779 1.689033 0.057184 0.261279 2.821316 0.098132 1.434834 14.627548 0.662441 -0.909245 11.395446 -0.798086 -1.399505 -14.635670 -1.138062 5.082683 -2.306863 2.378251 27.626835 -30.798599 -17.354199 44.166617 -16.662124 -3.663084 13.434272 -11.938031 -47.299655 -7.488394 -3.030698 -0.093945 -15.396875 -26.319569 5.295619 -54.013671 -24.587758 18.168228 -24.215522 -9.827806 38.473461 9.737439 -43.297584 -3.121383 3.294586 73.265962 1.434880 2.036373 -1.729362 5.845110 0.018911 -0.000458 -0.019247 -4.462753 -45.699745 -8.261483 29.703289 74.787680 31.584786 -19.376800 -4.084801 -0.390592 -0.596024 -1.023456 -0.531101
-15.244650 58.255830 25.071062 178.668336 -27.699254 -0.660998 1.660749 16.402510 1.050431 0.160478 1.675274 0.055961 0.269161 2.799236 0.096085 1.481209 14.573826 0.658278 -0.952190 11.451412 -0.751427 -1.501910 -14.531533 -1.030434 5.002509 -2.207278 2.425243 27.390492 -30.752691 -17.236769 44.308589 -16.627929 -3.722568 13.582334 -12.719094 -47.606913 -7.396778 -3.014806 -0.039758 -15.530877 -26.172900 5.322167 -54.502774 -24.818935 18.335018 -24.256434 -10.026381 38.653632 9.737856 -43.324173 -3.111058 3.775685 73.292782 1.815387 1.865032 -1.656982 5.911872 0.026394 -0.052986 -0.033123 -4.404352 -45.714463 -8.349482 29.265218 74.858632 31.124815 -19.285893 -4.016829 -0.238259 -0.636531 -1.035048 -0.539860
-15.248438 58.273334 25.051934 178.679677 -27.672337 -0.620717 1.710815 16.325769 1.015595 0.165878 1.661214 0.054257 0.278226 2.776560 0.093283 1.534115 14.518151 0.650709 -0.999915 11.506310 -0.697405 -1.616602 -14.429176 -0.906649 4.970812 -2.154977 2.448663 27.091803 -30.685809 -17.047585 44.488451 -16.514201 -3.813509 13.760370 -13.479019 -47.924021 -7.312262 -2.987578 0.025182 -15.645600 -26.039373 5.333488 -54.965233 -25.031962 18.465222 -24.289931 -10.212702 38.814596 9.754444 -43.355064 -3.136916 4.395254 73.316639 2.373049 1.678798 -1.561486 5.947969 0.028543 -0.110023 -0.042466 -4.318106 -45.723148 -8.469482 28.840871 74.912916 30.700541 -19.201683 -3.974204 -0.100916 -0.634556 -1.025607 -0.550928
-15.243659 58.294740 25.032079 178.681506 -27.661275 -0.595801 1.784183 16.265007 0.999486 0.126768 1.678537 0.060531 0.332700 2.721996 0.079622 1.591644 14.460968 0.638979 -1.052241 11.559075 -0.636648 -1.742893 -14.330512 -0.768032 4.930414 -2.103810 2.472941 26.813233 -30.629342 -16.837494 44.737747 -16.325197 -3.930596 13.962958 -14.182532 -48.278459 -7.235196 -2.950713 0.097763 -15.742590 -25.912246 5.333179 -55.393366 -25.233294 18.561275 -24.313813 -10.371767 38.951645 9.704222 -43.371358 -3.059378 4.937399 73.332165 2.788376 1.483261 -1.449595 5.999688 0.037130 -0.202800 -0.053398 -4.255214 -45.715641 -8.553266 28.331247 74.988441 30.179631 -19.090171 -3.965537 0.039605 -0.607357 -0.985472 -0.554188
-15.234660 58.318582 25.015395 178.687008 -27.645302 -0.558198 1.857640 16.199535 0.963447 0.155277 1.648083 0.054374 0.321652 2.714688 0.079586 1.654171 14.402510 0.624086 -1.108082 11.609708 -0.569752 -1.878313 -14.235631 -0.616448 4.863343 -2.039540 2.511431 26.619253 -30.592950 -16.685169 45.013069 -16.092242 -4.027735 14.169957 -14.802190 -48.673019 -7.168025 -2.904314 0.176454 -15.822890 -25.787366 5.324640 -55.780931 -25.426589 18.633694 -24.329894 -10.504629 39.071693 9.653459 -43.390290 -2.997188 5.413918 73.344386 3.140490 1.315594 -1.334082 6.045283 0.043728 -0.228627 -0.051193 -4.203048 -45.723018 -8.652975 27.781009 75.082129 29.603425 -18.962521 -4.022105 0.129728 -0.572778 -0.879456 -0.500401
-15.218403 58.346205 25.000821 178.680443 -27.638188 -0.511913 1.949514 16.141757 0.917930 0.185338 1.617928 0.046478 0.310917 2.707034 0.080700 1.723037 14.343111 0.607530 -1.167690 11.658152 -0.497538 -2.023017 -14.144492 -0.453408 4.789725 -1.978761 2.555697 26.417577 -30.559493 -16.521032 45.344902 -15.830057 -4.130388 14.358686 -15.333373 -49.088671 -7.116861 -2.847416 0.262519 -15.887148 -25.662064 5.307648 -56.123107 -25.613599 18.694094 -24.337171 -10.612779 39.181269 9.626664 -43.396511 -2.957930 5.583802 73.351407 3.229854 1.253693 -1.218116 6.074051 0.046391 -0.239369 -0.050038 -4.148223 -45.737189 -8.760183 27.346306 75.167425 29.135313 -18.874230 -4.016021 0.275232 -0.536212 -0.830131 -0.504622
-15.192068 58.377306 24.990119 178.680923 -27.633538 -0.480212 2.048626 16.085387 0.881025 0.193074 1.603904 0.043196 0.323965 2.684500 0.075402 1.797698 14.284644 0.587727 -1.232889 11.702730 -0.420657 -2.180276 -14.060028 -0.279137 4.708548 -1.923386 2.608663 26.219386 -30.535765 -16.243770 45.720408 -15.469926 -4.302398 14.522491 -15.777604 -49.510836 -7.087290 -2.780408 0.357058 -15.937589 -25.532081 5.282553 -56.411897 -25.797380 18.753381 -24.335728 -10.698944 39.282852 9.580954 -43.395691 -2.902172 5.713568 73.344659 3.291641 1.205620 -1.102274 6.092602 0.045048 -0.259091 -0.053796 -4.112044 -45.755575 -8.848774 27.075728 75.233643 28.830587 -18.873502 -4.037891 0.400093 -0.440008 -0.776749 -0.528713
-15.157984 58.410572 24.986446 178.705980 -27.613406 -0.460542 2.133005 16.015525 0.843237 0.201211 1.591075 0.039517 0.337645 2.663846 0.069417 1.875380 14.230103 0.564364 -1.303022 11.740795 -0.340707 -2.348198 -13.987204 -0.096872 4.627537 -1.876364 2.668982 26.099948 -30.520340 -16.080362 46.027538 -15.144931 -4.395318 14.668244 -16.140992 -49.936846 -7.074715 -2.708816 0.455212 -15.976728 -25.395384 5.252086 -56.644528 -25.985805 18.818999 -24.331095 -10.768481 39.379351 9.515821 -43.399587 -2.850351 5.911893 73.319264 3.429699 1.133882 -1.008295 6.096853 0.040894 -0.249014 -0.052251 -4.103118 -45.802015 -8.929508 26.936408 75.294116 28.653321 -18.935831 -4.115218 0.471718 -0.320648 -0.667385 -0.502357
-15.115024 58.448205 24.985637 178.711637 -27.608614 -0.447293 2.241676 15.964176 0.820070 0.209597 1.579761 0.035764 0.351638 2.645506 0.063263 1.954538 14.180655 0.539965 -1.376180 11.771720 -0.259578 -2.522283 -13.927338 0.088890 4.556123 -1.837847 2.730752 26.018021 -30.515249 -15.946751 46.315846 -14.821747 -4.471652 14.813195 -16.440828 -50.368229 -7.069111 -2.640184 0.548795 -16.008566 -25.249987 5.217952 -56.830427 -26.185805 18.895558 -24.324656 -10.820909 39.465078 9.488936 -43.387714 -2.794804 5.814637 73.284744 3.311007 1.138105 -0.894057 6.106607 0.030568 -0.249581 -0.057450 -4.088482 -45.829344 -8.973226 26.777481 75.355464 28.453540 -19.006630 -4.216684 0.504691 -0.239770 -0.481736 -0.356459
-15.068925 58.488924 24.989220 178.716497 -27.607971 -0.428189 2.350568 15.920126 0.788923 0.218165 1.569936 0.032060 0.366012 2.629476 0.057183 2.035294 14.136214 0.515652 -1.451649 11.796532 -0.177585 -2.701078 -13.878448 0.277333 4.495186 -1.806127 2.791451 25.973163 -30.521151 -15.840322 46.596234 -14.505934 -4.539173 14.971944 -16.681583 -50.804956 -7.067055 -2.576588 0.635826 -16.035690 -25.095937 5.180302 -56.979039 -26.397905 18.981929 -24.314992 -10.853426 39.530194 9.469620 -43.372596 -2.754554 5.556482 73.246004 3.050024 1.194798 -0.759012 6.112691 0.021699 -0.265380 -0.066783 -4.059320 -45.852859 -9.027783 26.676985 75.403782 28.323182 -19.086071 -4.312355 0.532211 -0.146160 -0.333014 -0.254966
-15.023240 58.531664 24.997703 178.725354 -27.605709 -0.399865 2.453763 15.877024 0.745211 0.226876 1.561663 0.028294 0.380639 2.616104 0.050977 2.116735 14.097545 0.490535 -1.529524 11.815290 -0.094480 -2.884929 -13.840284 0.468996 4.442131 -1.783471 2.851978 25.971406 -30.533593 -15.758932 46.876726 -14.198450 -4.598475 15.144721 -16.842124 -51.238454 -7.068104 -2.518986 0.720421 -16.049919 -24.937515 5.132868 -57.104225 -26.619035 19.071508 -24.304346 -10.869692 39.573878 9.369231 -43.346310 -2.675727 5.346578 73.186559 2.782238 1.254241 -0.661312 6.096989 0.015237 -0.240865 -0.060256 -4.020203 -45.873232 -9.100334 26.695236 75.424144 28.326625 -19.204087 -4.402233 0.606070 -0.038324 -0.208148 -0.237475
